<svg width="73" height="49" viewBox="0 0 73 49" fill="none" xmlns="http://www.w3.org/2000/svg">
  <style>
    @media (prefers-color-scheme: dark) {
      .path { fill: white; }
    }
    @media (prefers-color-scheme: light) {
      .path { fill: black; }
    }
  </style>
  <path class="path" d="M7.448 21.656C6.04 21.336 4.728 20.792 3.512 20.024C2.296 19.256 1.272 18.2 0.44 16.856L3.704 11.96C6.776 7.416 9.528 4.344 11.96 2.744C14.456 1.144 17.144 0.343997 20.024 0.343997C23.416 0.343997 26.296 1.688 28.664 4.376C31.096 7 32.312 10.584 32.312 15.128V29.624C32.312 36.6 34.36 40.088 38.456 40.088C41.08 40.088 43.512 39.032 45.752 36.92C47.992 34.808 49.784 32.056 51.128 28.664C52.536 25.208 53.24 21.528 53.24 17.624C53.24 17.112 53.24 16.6 53.24 16.088C50.232 14.936 47.896 13.4 46.232 11.48C46.424 9.432 46.968 7.576 47.864 5.912C48.76 4.184 49.848 2.84 51.128 1.88C52.472 0.855997 53.752 0.343997 54.968 0.343997C56.376 0.343997 57.624 1.08 58.712 2.552C59.8 4.024 60.632 6.008 61.208 8.504C62.744 8.376 64.312 8.184 65.912 7.928C67.512 7.672 68.856 7.352 69.944 6.968C70.648 8.056 71.192 9.368 71.576 10.904C72.024 12.376 72.184 13.784 72.056 15.128C70.84 15.448 69.368 15.768 67.64 16.088C65.976 16.408 64.12 16.664 62.072 16.856C62.072 22.808 60.984 28.184 58.808 32.984C56.696 37.72 53.784 41.464 50.072 44.216C46.36 46.968 42.168 48.344 37.496 48.344C33.208 48.344 29.816 46.84 27.32 43.832C24.824 40.76 23.576 36.632 23.576 31.448V16.376C23.576 13.56 23.16 11.576 22.328 10.424C21.496 9.208 20.472 8.6 19.256 8.6C18.296 8.6 17.208 9.048 15.992 9.944C14.84 10.776 13.272 12.728 11.288 15.8L7.448 21.656Z"/>
</svg>